<?xml version="1.0" standalone="no"?>
<!DOCTYPE svg PUBLIC "-//W3C//DTD SVG 20010904//EN"
 "http://www.w3.org/TR/2001/REC-SVG-20010904/DTD/svg10.dtd">
<svg version="1.0" xmlns="http://www.w3.org/2000/svg"
 width="700.000000pt" height="700.000000pt" viewBox="0 0 700.000000 700.000000"
 preserveAspectRatio="xMidYMid meet">
<metadata>
Created by potrace 1.14, written by Peter Selinger 2001-2017
</metadata>
<g transform="translate(0.000000,700.000000) scale(0.100000,-0.100000)"
fill="#000000" stroke="none">
<path d="M5856 5185 c-21 -7 -39 -15 -41 -17 -3 -1 -672 -670 -1487 -1485
l-1483 -1483 -715 716 c-393 393 -724 720 -735 726 -61 34 -138 26 -188 -21
-60 -54 -75 -136 -37 -198 33 -54 1565 -1580 1607 -1601 44 -21 96 -21 139 1
41 21 3126 3109 3141 3144 54 127 -71 262 -201 218z"/>
</g>
</svg>
